<svg width="600" height="120" viewBox="0 0 600 120" fill="none" xmlns="http://www.w3.org/2000/svg">
<path d="M-3.08811e-06 27.6619C-1.72904e-06 19.889 8.47971 15.0878 15.145 19.087L40.2899 34.174C46.314 37.7884 50 44.2986 50 51.3238L50 68.6762C50 75.7015 46.314 82.2116 40.2899 85.8261L15.1449 100.913C8.47968 104.912 -1.57555e-05 100.111 -1.43965e-05 92.3381L-3.08811e-06 27.6619Z" fill="#FA776C"/>
<path d="M103.855 -3.00576e-06C109.151 -1.88027e-06 111.85 6.36198 108.169 10.1701L94.8962 23.9004C91.1279 27.7987 85.9383 30 80.5165 30L55.5397 30C51.9148 30 48.3581 29.0148 45.2498 27.1498L18.5749 11.1449C13.3568 8.01404 15.5766 -2.17645e-05 21.6619 -2.04714e-05L103.855 -3.00576e-06Z" fill="#624CF5"/>
<path d="M103.855 120C109.151 120 111.85 113.638 108.169 109.83L94.8962 96.0995C91.1279 92.2013 85.9384 90 80.5165 90L55.5397 90C51.9148 90 48.3581 90.9851 45.2498 92.8501L18.5749 108.855C13.3568 111.986 15.5766 120 21.6619 120L103.855 120Z" fill="#624CF5"/>
<rect x="56" y="45" width="30" height="30" rx="15" fill="#FA776C"/>
<!-- <path d="M164.272 93V25.8H179.248V93H164.272ZM220.041 93.768C214.153 93.768 208.969 92.616 204.489 90.312C200.073 88.008 196.649 84.872 194.217 80.904C191.785 76.872 190.569 72.296 190.569 67.176C190.569 61.992 191.753 57.416 194.121 53.448C196.553 49.416 199.849 46.28 204.009 44.04C208.169 41.736 212.873 40.584 218.121 40.584C223.177 40.584 227.721 41.672 231.753 43.848C235.849 45.96 239.081 49.032 241.449 53.064C243.817 57.032 245.001 61.8 245.001 67.368C245.001 67.944 244.969 68.616 244.905 69.384C244.841 70.088 244.777 70.76 244.713 71.4H202.761V62.664H236.841L231.081 65.256C231.081 62.568 230.537 60.232 229.449 58.248C228.361 56.264 226.857 54.728 224.937 53.64C223.017 52.488 220.777 51.912 218.217 51.912C215.657 51.912 213.385 52.488 211.401 53.64C209.481 54.728 207.977 56.296 206.889 58.344C205.801 60.328 205.257 62.696 205.257 65.448V67.752C205.257 70.568 205.865 73.064 207.081 75.24C208.361 77.352 210.121 78.984 212.361 80.136C214.665 81.224 217.353 81.768 220.425 81.768C223.177 81.768 225.577 81.352 227.625 80.52C229.737 79.688 231.657 78.44 233.385 76.776L241.353 85.416C238.985 88.104 236.009 90.184 232.425 91.656C228.841 93.064 224.713 93.768 220.041 93.768ZM257.443 93V41.352H271.747V55.656L269.443 51.912C271.363 47.944 274.115 44.968 277.699 42.984C281.347 40.936 285.411 39.912 289.891 39.912V53.832C289.379 53.768 288.899 53.736 288.451 53.736C288.003 53.672 287.555 53.64 287.107 53.64C282.435 53.64 278.691 54.984 275.875 57.672C273.123 60.296 271.747 64.264 271.747 69.576V93H257.443ZM323.091 93.768C317.203 93.768 312.019 92.616 307.539 90.312C303.123 88.008 299.699 84.872 297.267 80.904C294.835 76.872 293.619 72.296 293.619 67.176C293.619 61.992 294.803 57.416 297.171 53.448C299.603 49.416 302.899 46.28 307.059 44.04C311.219 41.736 315.923 40.584 321.171 40.584C326.227 40.584 330.771 41.672 334.803 43.848C338.899 45.96 342.131 49.032 344.499 53.064C346.867 57.032 348.051 61.8 348.051 67.368C348.051 67.944 348.019 68.616 347.955 69.384C347.891 70.088 347.827 70.76 347.763 71.4H305.811V62.664H339.891L334.131 65.256C334.131 62.568 333.587 60.232 332.499 58.248C331.411 56.264 329.907 54.728 327.987 53.64C326.067 52.488 323.827 51.912 321.267 51.912C318.707 51.912 316.435 52.488 314.451 53.64C312.531 54.728 311.027 56.296 309.939 58.344C308.851 60.328 308.307 62.696 308.307 65.448V67.752C308.307 70.568 308.915 73.064 310.131 75.24C311.411 77.352 313.171 78.984 315.411 80.136C317.715 81.224 320.403 81.768 323.475 81.768C326.227 81.768 328.627 81.352 330.675 80.52C332.787 79.688 334.707 78.44 336.435 76.776L344.403 85.416C342.035 88.104 339.059 90.184 335.475 91.656C331.891 93.064 327.763 93.768 323.091 93.768ZM361.092 93V21.768H375.396V93H361.092ZM389.149 93V21.768H403.453V93H389.149ZM446.037 93.768C440.149 93.768 434.965 92.616 430.485 90.312C426.069 88.008 422.645 84.872 420.213 80.904C417.781 76.872 416.565 72.296 416.565 67.176C416.565 61.992 417.749 57.416 420.117 53.448C422.549 49.416 425.845 46.28 430.005 44.04C434.165 41.736 438.869 40.584 444.117 40.584C449.173 40.584 453.717 41.672 457.749 43.848C461.845 45.96 465.077 49.032 467.445 53.064C469.813 57.032 470.997 61.8 470.997 67.368C470.997 67.944 470.965 68.616 470.901 69.384C470.837 70.088 470.773 70.76 470.709 71.4H428.757V62.664H462.837L457.077 65.256C457.077 62.568 456.533 60.232 455.445 58.248C454.357 56.264 452.853 54.728 450.933 53.64C449.013 52.488 446.773 51.912 444.213 51.912C441.653 51.912 439.381 52.488 437.397 53.64C435.477 54.728 433.973 56.296 432.885 58.344C431.797 60.328 431.253 62.696 431.253 65.448V67.752C431.253 70.568 431.861 73.064 433.077 75.24C434.357 77.352 436.117 78.984 438.357 80.136C440.661 81.224 443.349 81.768 446.421 81.768C449.173 81.768 451.573 81.352 453.621 80.52C455.733 79.688 457.653 78.44 459.381 76.776L467.349 85.416C464.981 88.104 462.005 90.184 458.421 91.656C454.837 93.064 450.709 93.768 446.037 93.768ZM499.988 93.768C495.636 93.768 491.732 92.904 488.276 91.176C484.884 89.384 482.196 86.888 480.212 83.688C478.292 80.424 477.332 76.552 477.332 72.072V41.352H491.636V70.632C491.636 74.792 492.564 77.864 494.42 79.848C496.276 81.832 498.868 82.824 502.196 82.824C504.564 82.824 506.676 82.312 508.532 81.288C510.452 80.264 511.956 78.728 513.044 76.68C514.132 74.632 514.676 72.04 514.676 68.904V41.352H528.98V93H514.676V78.792L517.46 83.112C515.54 86.568 512.82 89.256 509.3 91.176C505.844 92.904 503.124 93.768 499.988 93.768Z" fill="black"/> -->
</svg>